<svg width="85" height="44" viewBox="0 0 85 44" fill="none" xmlns="http://www.w3.org/2000/svg">
<path d="M18.7647 31.9078C17.2872 31.9078 15.9631 31.6679 14.7926 31.1883C13.6221 30.7086 12.6819 29.9985 11.9719 29.0583C11.2811 28.1181 10.9165 26.9859 10.8781 25.6619H16.1167C16.1934 26.4103 16.4525 26.9859 16.8938 27.3889C17.3351 27.7727 17.9108 27.9646 18.6208 27.9646C19.35 27.9646 19.9256 27.8015 20.3478 27.4752C20.7699 27.1298 20.981 26.6596 20.981 26.0649C20.981 25.5659 20.8083 25.1535 20.4629 24.8272C20.1367 24.5009 19.7241 24.2324 19.2252 24.0213C18.7455 23.8101 18.0547 23.5704 17.1528 23.3017C15.848 22.8987 14.783 22.4958 13.9579 22.0928C13.1328 21.6898 12.4228 21.095 11.828 20.3083C11.2331 19.5215 10.9357 18.4949 10.9357 17.2285C10.9357 15.348 11.6169 13.88 12.9793 12.8247C14.3417 11.7501 16.1167 11.2128 18.3042 11.2128C20.5301 11.2128 22.3242 11.7501 23.6866 12.8247C25.0491 13.88 25.7781 15.3576 25.8741 17.2573H20.5492C20.5109 16.6048 20.271 16.0963 19.8297 15.7318C19.3883 15.348 18.8223 15.1561 18.1315 15.1561C17.5366 15.1561 17.0569 15.3192 16.6923 15.6454C16.3277 15.9524 16.1454 16.4034 16.1454 16.9982C16.1454 17.6506 16.4525 18.1591 17.0665 18.5237C17.6805 18.8883 18.64 19.2817 19.9448 19.7038C21.2496 20.1452 22.305 20.5673 23.1109 20.9703C23.936 21.3732 24.6461 21.9585 25.2409 22.726C25.8357 23.4935 26.1332 24.4818 26.1332 25.6907C26.1332 26.842 25.8357 27.8879 25.2409 28.828C24.6652 29.7682 23.8208 30.5166 22.708 31.0731C21.595 31.6297 20.2806 31.9078 18.7647 31.9078ZM31.6375 13.976C30.774 13.976 30.0641 13.7265 29.5075 13.2276C28.9703 12.7095 28.7016 12.0763 28.7016 11.3279C28.7016 10.5604 28.9703 9.92718 29.5075 9.42827C30.0641 8.91017 30.774 8.65112 31.6375 8.65112C32.4818 8.65112 33.1726 8.91017 33.7099 9.42827C34.2664 9.92718 34.5446 10.5604 34.5446 11.3279C34.5446 12.0763 34.2664 12.7095 33.7099 13.2276C33.1726 13.7265 32.4818 13.976 31.6375 13.976ZM34.084 15.6454V31.7063H29.1621V15.6454H34.084ZM46.6024 27.5328V31.7063H44.0983C42.3137 31.7063 40.9225 31.2746 39.9247 30.4111C38.927 29.5285 38.428 28.0988 38.428 26.1224V19.7326H36.4708V15.6454H38.428V11.7309H43.3499V15.6454H46.5736V19.7326H43.3499V26.18C43.3499 26.6596 43.4651 27.005 43.6953 27.2162C43.9256 27.4273 44.3094 27.5328 44.8466 27.5328H46.6024ZM56.6549 31.9366C55.0815 31.9366 53.6615 31.6009 52.395 30.9292C51.1477 30.2575 50.1596 29.2982 49.4303 28.0509C48.7204 26.8036 48.3654 25.3453 48.3654 23.6759C48.3654 22.0256 48.7299 20.5769 49.4591 19.3296C50.1884 18.0632 51.1861 17.0942 52.4526 16.4225C53.719 15.7509 55.1391 15.4151 56.7125 15.4151C58.2859 15.4151 59.7059 15.7509 60.9723 16.4225C62.2388 17.0942 63.2365 18.0632 63.9658 19.3296C64.695 20.5769 65.0595 22.0256 65.0595 23.6759C65.0595 25.3262 64.6854 26.7844 63.937 28.0509C63.2078 29.2982 62.2003 30.2575 60.9148 30.9292C59.6483 31.6009 58.2283 31.9366 56.6549 31.9366ZM56.6549 27.6767C57.5951 27.6767 58.3915 27.3313 59.0439 26.6405C59.7156 25.9497 60.0513 24.9614 60.0513 23.6759C60.0513 22.3902 59.725 21.402 59.0727 20.7112C58.4394 20.0204 57.6526 19.675 56.7125 19.675C55.7529 19.675 54.9567 20.0204 54.3235 20.7112C53.6902 21.3828 53.3736 22.371 53.3736 23.6759C53.3736 24.9614 53.6806 25.9497 54.2947 26.6405C54.9279 27.3313 55.7147 27.6767 56.6549 27.6767Z" fill="#E83636"/>
<path d="M9.2178 26.6382C9.20375 26.9966 9.15104 27.3497 9.0597 27.6975C8.96834 28.0454 8.82955 28.3598 8.64333 28.6409C8.46063 28.9219 8.22697 29.1468 7.94238 29.3155C7.65779 29.4841 7.31345 29.5684 6.9094 29.5684C6.68101 29.5684 6.47548 29.528 6.29277 29.4472C6.11007 29.3665 5.95547 29.2523 5.82898 29.1048C5.7025 28.9537 5.60938 28.7726 5.54965 28.5619C5.48993 28.351 5.46884 28.1138 5.4864 27.8505L5.7552 24.8147H6.80925L6.54575 27.8505C6.52466 28.033 6.52641 28.1824 6.55101 28.2984C6.57912 28.4142 6.62128 28.5039 6.6775 28.5671C6.73722 28.6303 6.80399 28.6759 6.87777 28.7041C6.95507 28.7288 7.03061 28.7409 7.10441 28.7409C7.27306 28.7409 7.42763 28.6883 7.56818 28.5828C7.70872 28.4776 7.82994 28.3317 7.93183 28.1455C8.03374 27.9593 8.11454 27.7414 8.17428 27.492C8.23401 27.239 8.26738 26.9667 8.27442 26.6751C8.299 26.2078 8.27617 25.7756 8.2059 25.3785C8.13914 24.9816 8.0232 24.6267 7.85805 24.314C7.69644 23.9978 7.48563 23.7306 7.22561 23.5128C6.96562 23.2915 6.65643 23.1228 6.29803 23.0068C5.93966 22.8874 5.53034 22.8278 5.07006 22.8278C4.63788 22.8278 4.2391 22.8944 3.87369 23.0279C3.51179 23.1615 3.18679 23.3531 2.89867 23.6025C2.61408 23.8519 2.36812 24.1505 2.16083 24.4983C1.95704 24.8428 1.79542 25.2276 1.67596 25.6526C1.56001 26.0742 1.4915 26.5276 1.47041 27.0124C1.44582 27.5219 1.47217 27.9856 1.54947 28.4036C1.63028 28.8219 1.75853 29.1891 1.9342 29.5053C2.1134 29.825 2.3365 30.0919 2.60353 30.3062C2.87056 30.5208 3.18151 30.6822 3.53639 30.7913C3.89126 30.9001 4.28653 30.9545 4.72221 30.9545C5.02789 30.9545 5.33884 30.9194 5.65505 30.8493C5.97479 30.7825 6.24357 30.6964 6.46142 30.5909L6.66169 31.3762C6.41573 31.5342 6.10831 31.6521 5.73937 31.7294C5.37396 31.8066 5.02789 31.8452 4.70112 31.8452C4.14248 31.8452 3.633 31.7766 3.17274 31.6397C2.71596 31.5061 2.3119 31.306 1.96056 31.0389C1.6092 30.7753 1.31582 30.4486 1.08041 30.0587C0.848516 29.6687 0.676351 29.219 0.563917 28.7094C0.454998 28.1999 0.412835 27.6344 0.437429 27.0124C0.462025 26.436 0.551619 25.8932 0.706215 25.3839C0.860812 24.8743 1.07162 24.4122 1.33866 23.9978C1.60569 23.5831 1.92542 23.2265 2.29787 22.9279C2.6738 22.6256 3.09543 22.3938 3.56275 22.2322C4.03004 22.0705 4.5395 21.9897 5.09113 21.9897C5.63924 21.9897 6.13642 22.0618 6.58263 22.2058C7.03236 22.3499 7.42588 22.5571 7.76318 22.8278C8.10048 23.0947 8.38157 23.4197 8.60643 23.8028C8.8313 24.1822 8.99469 24.6108 9.09658 25.0886C9.19846 25.5665 9.23887 26.083 9.2178 26.6382ZM3.89476 27.1916C3.8772 27.4234 3.87896 27.629 3.90005 27.8082C3.92112 27.9874 3.96153 28.1385 4.02125 28.2615C4.08098 28.3845 4.15829 28.4776 4.25316 28.5408C4.35154 28.6006 4.46748 28.6303 4.60098 28.6303C4.67478 28.6303 4.75558 28.6128 4.84343 28.5777C4.93127 28.539 5.02085 28.4758 5.11222 28.3879C5.20356 28.3002 5.28964 28.1788 5.37046 28.0243C5.45478 27.8662 5.52505 27.6676 5.58127 27.4288L6.02925 27.9611C5.94843 28.2246 5.8483 28.4565 5.72885 28.6568C5.60938 28.8534 5.47234 29.0186 5.31775 29.1522C5.16668 29.2856 5.00154 29.3859 4.82234 29.4526C4.64314 29.5192 4.44992 29.5527 4.24261 29.5527C3.98613 29.5527 3.75773 29.4983 3.55746 29.3892C3.3572 29.2768 3.1903 29.1169 3.0568 28.9096C2.92327 28.7025 2.82664 28.4547 2.76692 28.1666C2.7107 27.875 2.70016 27.55 2.7353 27.1916C2.77393 26.8331 2.84421 26.5012 2.94612 26.1954C3.048 25.8898 3.17449 25.6175 3.32558 25.3785C3.47665 25.1361 3.64883 24.9305 3.84205 24.7619C4.03881 24.5899 4.25138 24.4597 4.47978 24.372C4.70815 24.2841 4.94708 24.2402 5.19654 24.2402C5.60059 24.2402 5.91857 24.2982 6.15048 24.414C6.38236 24.5301 6.60197 24.6636 6.80925 24.8147L6.27168 25.5366C6.16979 25.4453 6.03629 25.3576 5.87115 25.2732C5.70951 25.1853 5.51626 25.1415 5.29139 25.1415C5.08411 25.1415 4.90141 25.1853 4.7433 25.2732C4.58868 25.3609 4.45342 25.4927 4.33748 25.6683C4.22505 25.8406 4.13193 26.0549 4.05815 26.3115C3.98437 26.5644 3.92991 26.8579 3.89476 27.1916Z" fill="#E83636"/>
<path d="M76.2057 24.0327H77.7813V29.1028C77.7813 29.6931 77.6549 30.1903 77.402 30.5944C77.1526 30.9985 76.8063 31.3023 76.3638 31.506C75.9246 31.7099 75.4186 31.8118 74.8459 31.8118C74.2732 31.8118 73.7636 31.7099 73.3175 31.506C72.8747 31.3023 72.5268 30.9985 72.2739 30.5944C72.0245 30.1903 71.8997 29.6931 71.8997 29.1028V24.0327H73.4807V29.1028C73.4807 29.4471 73.5354 29.7282 73.6442 29.9461C73.753 30.164 73.9096 30.3239 74.1133 30.4257C74.3206 30.5276 74.5648 30.5784 74.8459 30.5784C75.134 30.5784 75.3782 30.5276 75.5785 30.4257C75.7823 30.3239 75.9367 30.164 76.0422 29.9461C76.151 29.7282 76.2057 29.4471 76.2057 29.1028V24.0327ZM80.7644 24.0327V31.7063H79.1885V24.0327H80.7644Z" fill="#E83636"/>
<path d="M71.0441 20.8004L67.2915 31.9103H65.7876L69.5402 20.8004H71.0441Z" fill="#CD212A"/>
</svg>
